# AST/ASF file generated using VICON BodyLanguage
# -----------------------------------------------
:version 1.10
:name VICON
:units
  mass 1.0
  length 0.1
  angle deg
:documentation
   .ast/.asf automatically generated from VICON data using
   VICON BodyBuilder and BodyLanguage model FULLBODY5.MOD
:root
   order TX TY TZ RZ RY RX
   axis XYZ
   position 0 0 0  
   orientation 0 -0 0 
:bonedata
  begin
     id 1 
     name lhipjoint
     direction 0.969109 -0.218487 0.11442 
     length 0.544217 
     axis 0 -0 0  XYZ
  end
  begin
     id 2 
     name lfemur
     direction 0.173648 -0.984808 0  
     length 1.81499  
     axis 0 -0 10  XYZ
    dof rx ry rz
    limits (-180.0 180.0)
           (-180.0 180.0)
           (-180.0 180.0)
  end
  begin
     id 3 
     name ltibia
     direction 0.173515 -0.984831 0   
     length 1.55296   
     axis 0 -0 10   XYZ
    dof rx ry rz
    limits (-180.0 180.0)
           (-180.0 180.0)
           (-180.0 180.0)
  end
  begin
     id 4 
     name lfoot
     direction 7.36097e-012 -0.333012 0.942922   
     length 0.509062   
     axis -90 -1.73656e-015 10   XYZ
    dof rx ry rz
    limits (-180.0 180.0)
           (-180.0 180.0)
           (-180.0 180.0)
  end
  begin
     id 5 
     name ltoes
     direction 7.7847e-012 -4.42403e-011 1   
     length 0.249732   
     axis -90 -1.73656e-015 10   XYZ
    dof rx ry rz
    limits (-180.0 180.0)
           (-180.0 180.0)
           (-180.0 180.0)
  end
  begin
     id 6 
     name rhipjoint
     direction -0.966745 -0.226554 0.118645   
     length 0.524838  
     axis 0 -0 0  XYZ 
  end
  begin
     id 7 
     name rfemur
     direction -0.173648 -0.984808 0   
     length 1.84625   
     axis 0 -0 -10   XYZ
    dof rx ry rz
    limits (-180.0 180.0)
           (-180.0 180.0)
           (-180.0 180.0)
  end
  begin
     id 8 
     name rtibia
     direction -0.173714 -0.984796 0   
     length 1.577   
     axis 0 -0 -10   XYZ
    dof rx ry rz
    limits (-180.0 180.0)
           (-180.0 180.0)
           (-180.0 180.0)
 end
 begin
     id 9 
     name rfoot
     direction -0.0183819 -0.0406144 0.999006   
     length 0.490111  
     axis -90 1.73656e-015 -10   XYZ
    dof rx ry rz
    limits (-180.0 180.0)
           (-180.0 180.0)
           (-180.0 180.0)
  end
  begin
     id 10 
     name rtoes
     direction -7.79087e-012 -4.42375e-011 1   
     length 0.245053   
     axis -90 1.73656e-015 -10   XYZ
    dof rx ry rz
    limits (-180.0 180.0)
           (-180.0 180.0)
           (-180.0 180.0)
  end
  begin
     id 11 
     name lowerback
     direction -0.0664844 0.980601 0.184393   
     length 0.458979   
     axis 0 -0 0   XYZ
    dof rx ry rz
    limits (-180.0 180.0)
           (-180.0 180.0)
           (-180.0 180.0)
  end
  begin
     id 12 
     name upperback
     direction 0.0135995 0.999573 0.02588   
     length 0.463983   
     axis 0 -0 0   XYZ
    dof rx ry rz
    limits (-180.0 180.0)
           (-180.0 180.0)
           (-180.0 180.0)
  end
  begin
     id 13 
     name thorax
     direction 0.0468402 0.997311 -0.0563691   
     length 0.482746   
     axis 0 -0 0   XYZ
    dof rx ry rz
    limits (-180.0 180.0)
           (-180.0 180.0)
           (-180.0 180.0)
  end
  begin
     id 14 
     name lowerneck
     direction -0.00174311 0.988586 -0.150647   
     length 0.364383   
     axis 0 -0 0   XYZ
    dof rx ry rz
    limits (-180.0 180.0)
           (-180.0 180.0)
           (-180.0 180.0)
  end
  begin
     id 15 
     name upperneck
     direction -0.02653 0.999379 -0.0231908   
     length 0.361006   
     axis 0 -0 0   XYZ
    dof rx ry rz
    limits (-180.0 180.0)
           (-180.0 180.0)
           (-180.0 180.0)
  end
  begin
     id 16
     name head
     direction -0.00819207 0.999941 0.00714285  
     length 0.378714  
     axis 0 -0 0   XYZ
    dof rx ry rz
    limits (-180.0 180.0)
           (-180.0 180.0)
           (-180.0 180.0)
  end
  begin
     id 17 
     name lshoulderjoint
     direction 0.981627 -0.190809 0  
     length 0.612969  
     axis 0 -0 -11   XYZ
    dof rx ry rz
    limits (-180.0 180.0)
           (-180.0 180.0)
           (-180.0 180.0)
  end
  begin
     id 18 
     name lhumerus
     direction 0.48481 -0.87462 -9.72962e-027   
     length 1.19637   
     axis -180 5.14477e-009 -151   XYZ
    dof rx ry rz
    limits (-180.0 180.0)
           (-180.0 180.0)
           (-180.0 180.0)
  end
  begin
     id 19
     name lradius
     direction 0.48481 -0.87462 -2.35761e-026   
     length 0.637735   
     axis -180 5.14477e-009 -151   XYZ
    dof rx ry rz
    limits (-180.0 180.0)
           (-180.0 180.0)
           (-180.0 180.0)
  end
  begin
     id 20
     name lwrist
     direction 0.48481 -0.87462 -5.51856e-026   
     length 0.318868   
     axis -180 5.14477e-009 -151   XYZ
    dof rx ry rz
    limits (-180.0 180.0)
           (-180.0 180.0)
           (-180.0 180.0)
  end
  begin
     id 21 
     name lhand
     direction 0.477747 -0.861928 -0.169816   
     length 0.29526   
     axis -180 5.14477e-009 -151   XYZ
    dof rx ry rz
    limits (-180.0 180.0)
           (-180.0 180.0)
           (-180.0 180.0)
  end
  begin
     id 22 
     name rshoulderjoint
     direction -0.981627 -0.190809 0   
     length 0.572347  
     axis 0 -0 11   XYZ 
    dof rx ry rz
    limits (-180.0 180.0)
           (-180.0 180.0)
           (-180.0 180.0)
  end
  begin
     id 23 
     name rhumerus
     direction -0.48481 -0.87462 1.64836e-026  
     length 1.28846   
     axis 180 5.14477e-009 151   XYZ
    dof rx ry rz
    limits (-180.0 180.0)
           (-180.0 180.0)
           (-180.0 180.0)
  end
  begin
     id 24 
     name rradius
     direction -0.48481 -0.87462 2.86827e-026   
     length 0.62107   
     axis 180 5.14477e-009 151   XYZ
    dof rx ry rz
    limits (-180.0 180.0)
           (-180.0 180.0)
           (-180.0 180.0)
  end
  begin
     id 25 
     name rwrist
     direction -0.48481 -0.87462 5.20942e-026   
     length 0.310535   
     axis 180 5.14477e-009 151   XYZ
    dof rx ry rz
    limits (-180.0 180.0)
           (-180.0 180.0)
           (-180.0 180.0)
  end
  begin
     id 26
     name rhand
     direction -0.477664 -0.861515 -0.172133   
     length 0.291321   
     axis 180 5.14477e-009 151   XYZ
    dof rx ry rz
    limits (-180.0 180.0)
           (-180.0 180.0)
           (-180.0 180.0)
  end
:hierarchy
  begin
    root lhipjoint rhipjoint lowerback 
    lhipjoint lfemur
    lfemur ltibia
    ltibia lfoot
    lfoot ltoes
    rhipjoint rfemur
    rfemur rtibia
    rtibia rfoot
    rfoot rtoes
    lowerback upperback
    upperback thorax
    thorax lowerneck lshoulderjoint rshoulderjoint
    lowerneck upperneck
    upperneck head
    lshoulderjoint lhumerus
    lhumerus lradius
    lradius lwrist
    lwrist lhand
    rshoulderjoint rhumerus
    rhumerus rradius
    rradius rwrist
    rwrist rhand
  end

:FULLY-SPECIFIED
:DEGREES
1068
root -1.46933 3.69391 -0.727255 84.1854 -72.0665 82.9237
lowerback -18.6654 -0.984031 -6.7178
upperback -5.82 -0.461984 0.941213
thorax 4.19489 -0.362534 4.71673
lowerneck 13.1096 -2.87923 1.48167
upperneck 6.92558 -3.87971 -4.91842
head -0.143932 -1.99992 -1.63791
rshoulderjoint -2.17637 6.46549 -29.6491
rhumerus 349.154 -1.08988 -412.782
rradius 25.7485 -9.70069e-014 -2.09917e-013
rwrist -1.17694e-013 -0.876979 -2.95826e-013
rhand -0.984397 0.775281 30.3302
lshoulderjoint -2.00335 -5.81801 30.0379
lhumerus 352.807 11.5901 415.504
lradius 12.1086 -1.49486e-013 7.95139e-016
lwrist -2.04437e-013 -11.4402 2.59602e-014
lhand 11.279 9.83371 -33.0834
rfemur -27.9498 20.2805 7.96104
rtibia 13.3048 -3.18055e-014 -2.22639e-014
rfoot -181.976 -53.8186 163.175
rtoes -3.69739e-014 -4.51241e-013 4.49253e-014
lfemur -28.8795 1.1704 -13.5609
ltibia 62.7061 -1.03368e-014 1.88845e-015
lfoot -6.10182 12.3674 7.19527
ltoes -1.81292e-013 -1.65389e-013 -6.04305e-014
1069
root -1.50535 3.69881 -0.723027 85.146 -71.6325 83.7898
lowerback -18.8512 -0.784554 -6.49069
upperback -5.94872 -0.235367 0.761642
thorax 4.12556 -0.251672 4.44361
lowerneck 13.1572 -2.92222 1.49705
upperneck 6.88474 -3.93452 -4.86095
head -0.16525 -2.02552 -1.61872
rshoulderjoint -2.19817 6.52791 -29.6562
rhumerus 349.354 -1.1713 -412.796
rradius 25.6669 3.33958e-014 4.37326e-014
rwrist 9.5421e-015 -0.54822 4.77105e-014
rhand -0.553242 0.500986 30.5684
lshoulderjoint -2.01819 -5.84736 30.0799
lhumerus 352.258 12.4407 415.328
lradius 12.2774 3.18055e-014 3.97569e-015
lwrist -1.69617e-013 -11.5467 -4.54475e-014
lhand 10.9221 9.45318 -33.6926
rfemur -27.4186 20.4579 7.79399
rtibia 12.2975 2.54444e-014 -6.36111e-015
rfoot -182.028 -53.3769 163.218
rtoes 1.05058e-013 5.2094e-014 -9.14409e-014
lfemur -30.8355 1.28532 -13.7906
ltibia 62.1545 6.36111e-015 -2.08724e-015
lfoot -6.98229 12.1881 8.10511
ltoes -9.54166e-015 1.00187e-013 6.20208e-014
1070
root -1.5451 3.70471 -0.724271 86.1079 -71.6641 84.561
lowerback -18.7489 -0.655322 -6.70479
upperback -5.92019 -0.0239261 0.632703
thorax 4.0743 -0.145658 4.47305
lowerneck 13.1747 -2.96762 1.53055
upperneck 6.84549 -3.98944 -4.80151
head -0.181523 -2.05092 -1.60239
rshoulderjoint -2.21606 6.58471 -29.6473
rhumerus 349.525 -1.2165 -412.816
rradius 25.6017 -3.49861e-014 8.11041e-014
rwrist -2.03556e-013 -0.132757 1.76124e-013
rhand -0.156709 0.148333 30.7669
lshoulderjoint -2.04291 -5.90135 30.1335
lhumerus 351.709 12.808 415.178
lradius 12.5579 -1.74931e-014 3.02153e-014
lwrist -1.03792e-013 -11.3054 5.1085e-014
lhand 10.3675 9.09105 -34.569
rfemur -26.2759 20.7181 7.83577
rtibia 11.2939 -6.36111e-015 -1.59028e-015
rfoot -182.04 -53.0376 163.343
rtoes -7.38485e-014 -3.45016e-014 5.48646e-014
lfemur -32.0696 1.56344 -13.9597
ltibia 61.3228 -5.56597e-015 1.78906e-015
lfoot -7.84753 12.179 8.42533
ltoes 0 -5.725e-014 -3.33958e-014
1071
root -1.58475 3.71012 -0.725382 87.1846 -71.7132 85.4856
lowerback -18.6139 -0.514727 -6.85075
upperback -5.87428 0.188383 0.520449
thorax 4.02488 -0.0390483 4.4808
lowerneck 13.1278 -2.98702 1.52009
upperneck 6.78981 -4.01461 -4.75634
head -0.190993 -2.06212 -1.585
rshoulderjoint -2.21641 6.57975 -29.663
rhumerus 349.753 -1.0876 -412.849
rradius 25.5562 -5.88403e-014 -8.5875e-014
rwrist -2.38543e-013 0.200795 -1.06549e-013
rhand 0.268115 -0.147569 30.9487
lshoulderjoint -2.03144 -5.86137 30.1537
lhumerus 351.198 12.0826 415.072
lradius 12.9119 -8.5875e-014 2.94201e-014
lwrist -1.0616e-013 -11.1308 6.88825e-014
lhand 9.10503 9.63788 -35.7224
rfemur -25.131 21.024 7.91467
rtibia 10.3105 0 -3.18055e-015
rfoot -181.925 -52.6957 163.261
rtoes 9.34288e-014 4.0075e-013 -8.38871e-014
lfemur -33.2193 1.86572 -14.1174
ltibia 60.248 5.56597e-015 -9.34288e-015
lfoot -8.62697 11.5946 8.72322
ltoes 1.87653e-013 9.22361e-014 -4.92986e-014
1072
root -1.62405 3.71479 -0.726273 88.1943 -71.7302 86.3797
lowerback -18.4834 -0.371103 -6.96132
upperback -5.84905 0.396388 0.400881
thorax 3.95649 0.0659732 4.45862
lowerneck 13.1104 -3.01782 1.58563
upperneck 6.71586 -4.04483 -4.72297
head -0.213511 -2.07342 -1.58389
rshoulderjoint -2.20674 6.5531 -29.6573
rhumerus 349.971 -0.876933 -412.916
rradius 25.5245 1.55847e-013 2.67962e-013
rwrist -2.98984e-013 0.517323 3.53851e-013
rhand 0.707969 -0.461196 31.1299
lshoulderjoint -2.05094 -5.88874 30.2413
lhumerus 350.693 12.7761 414.898
lradius 13.3424 1.87653e-013 -1.03368e-014
lwrist -3.14971e-013 -10.8804 -1.65178e-013
lhand 8.61889 9.05765 -36.4485
rfemur -24.073 21.3156 8.02024
rtibia 9.4724 4.13472e-014 1.59028e-015
rfoot -181.694 -52.3269 163.099
rtoes 5.88403e-014 1.5955e-013 -7.63333e-014
lfemur -34.3392 2.06034 -14.2016
ltibia 58.9908 1.03368e-014 -5.81445e-015
lfoot -9.27475 11.546 8.8919
ltoes -5.40694e-014 1.66979e-013 1.09729e-013
